<?xml version="1.0" encoding="UTF-8"?> <svg xmlns="http://www.w3.org/2000/svg" xmlns:xlink="http://www.w3.org/1999/xlink" id="Layer_1" data-name="Layer 1" viewBox="0 0 600 243"><defs><style>.cls-1{fill:none;}.cls-2{fill:#33c4e5;}.cls-3{fill:#ededed;}.cls-4{clip-path:url(#clip-path);}.cls-5{fill:#fff;}.cls-6{clip-path:url(#clip-path-2);}</style><clipPath id="clip-path"><path class="cls-1" d="M86.16,99.27a2.59,2.59,0,0,1,3.89,2.25v31.55a3.87,3.87,0,0,0,.5,1.88,3.7,3.7,0,0,0,1.2,1.27L119.06,152a2,2,0,0,1,0,3.45l-10.67,6.16a2.66,2.66,0,0,1-2.67,0L76.77,144.87a3.27,3.27,0,0,1-1.22-1.28,3.62,3.62,0,0,1-.5-1.88V107.22a2.63,2.63,0,0,1,1.32-2.29Z"></path></clipPath><clipPath id="clip-path-2"><path class="cls-2" d="M138.94,143.73a2.59,2.59,0,0,1-3.89-2.25V109.93a3.87,3.87,0,0,0-.5-1.88,3.7,3.7,0,0,0-1.2-1.27L106,91a2,2,0,0,1,0-3.45l10.66-6.16a2.66,2.66,0,0,1,2.67,0l29,16.77a3.27,3.27,0,0,1,1.22,1.28,3.62,3.62,0,0,1,.5,1.88v34.49a2.63,2.63,0,0,1-1.32,2.29Z"></path></clipPath></defs><title>Healthdesk logo</title><path class="cls-3" d="M120.05,153.77V140.32a.28.28,0,0,1,.18-.27l4.83-1.71a1.49,1.49,0,0,0,.25-2.69l-16.37-9.46a2.59,2.59,0,0,0-3.89,2.25V145.1Z"></path><g class="cls-4"><polygon class="cls-5" points="57.38 153.47 110.68 122.65 139.75 173.07 86.45 203.88 57.38 153.47"></polygon><polygon class="cls-5" points="28.31 103.05 81.61 72.23 110.68 122.65 57.38 153.47 28.31 103.05"></polygon></g><path class="cls-3" d="M105.05,89.23v13.45a.28.28,0,0,1-.18.27L100,104.66a1.49,1.49,0,0,0-.25,2.69l16.37,9.46a2.59,2.59,0,0,0,3.89-2.25V97.9Z"></path><path class="cls-2" d="M138.94,143.73a2.59,2.59,0,0,1-3.89-2.25V109.93a3.87,3.87,0,0,0-.5-1.88,3.7,3.7,0,0,0-1.2-1.27L106,91a2,2,0,0,1,0-3.45l10.66-6.16a2.66,2.66,0,0,1,2.67,0l29,16.77a3.27,3.27,0,0,1,1.22,1.28,3.62,3.62,0,0,1,.5,1.88v34.49a2.63,2.63,0,0,1-1.32,2.29Z"></path><g class="cls-6"><polygon class="cls-5" points="167.72 89.53 114.42 120.35 85.35 69.93 138.66 39.12 167.72 89.53"></polygon><polygon class="cls-5" points="196.79 139.95 143.49 170.76 114.42 120.35 167.72 89.53 196.79 139.95"></polygon></g><path class="cls-5" d="M175.05,95.2l9.56-.9v22.34h.07a15.29,15.29,0,0,1,11.67-4.82c7.59,0,13.06,3.87,13.06,14.83v21.4h-9.56v-19c0-6.5-2.4-8.69-6.93-8.69-5.1,0-8.31,3.21-8.31,9.64v18h-9.56Z"></path><path class="cls-5" d="M249.09,133.29h-25c1.17,4.31,4.6,6.87,9.41,6.87a10.63,10.63,0,0,0,8.68-4l6.2,5.77c-3,3.87-7.58,6.79-15.53,6.79-11,0-18.68-7.37-18.68-18.55,0-10.88,7.51-18.33,18.09-18.33,10.07,0,17.07,7.6,17.07,18A33,33,0,0,1,249.09,133.29Zm-24.94-6.86h15.68c-1-3.8-3.5-6.28-7.66-6.28A7.93,7.93,0,0,0,224.15,126.43Z"></path><path class="cls-5" d="M252.52,130.3c0-10.81,7.22-18.48,16.78-18.48a13.41,13.41,0,0,1,10.51,4.68l.14-.08v-4.08h9.56v35.71h-9.12v-4.24l-.15-.07a12.83,12.83,0,0,1-10.72,5C259.74,148.7,252.52,141.33,252.52,130.3Zm27.87.07c0-5.77-3.94-10-9.05-10s-9.12,3.87-9.12,10c0,5.7,3.72,9.72,9.12,9.72C276.23,140.09,280.39,136.22,280.39,130.37Z"></path><path class="cls-5" d="M296.87,95.34l9.56-1v53.75h-9.56Z"></path><path class="cls-5" d="M315,136.8V120.3h-4.23v-8H315V100.72l9.56-1v12.64h9.62v8H324.6v15.11c0,3.14.8,4.6,3.06,4.6a11.15,11.15,0,0,0,4.52-1.24l2.41,7.67a17.19,17.19,0,0,1-9.41,2.26C319.05,148.7,315,144.83,315,136.8Z"></path><path class="cls-5" d="M338.89,95.34l9.56-1v22.34h.07a15.31,15.31,0,0,1,11.67-4.82c7.59,0,13.06,3.87,13.06,14.83v21.4H363.7v-19c0-6.5-2.41-8.69-6.93-8.69-5.11,0-8.32,3.21-8.32,9.64v18h-9.56Z"></path><path class="cls-5" d="M377.92,130.3c0-10.81,7.3-18.48,16.85-18.48a13.8,13.8,0,0,1,10.8,4.68h.14V95.2l9.49-.9v53.75h-9.12v-4.39H406c-2.48,3.22-6.2,5-11,5C385.14,148.7,377.92,141.33,377.92,130.3Zm28.16.07c0-5.77-3.87-10-9.34-10-5.11,0-9.12,3.87-9.12,10,0,5.7,3.8,9.72,9.12,9.72S406.08,136.22,406.08,130.37Z"></path><path class="cls-5" d="M455.47,133.29h-25c1.17,4.31,4.6,6.87,9.41,6.87a10.66,10.66,0,0,0,8.69-4l6.2,5.77c-3,3.87-7.59,6.79-15.54,6.79-10.94,0-18.68-7.37-18.68-18.55,0-10.88,7.52-18.33,18.09-18.33,10.07,0,17.07,7.6,17.07,18C455.68,131,455.54,132.71,455.47,133.29Zm-25-6.86H446.2c-.95-3.8-3.5-6.28-7.66-6.28A7.93,7.93,0,0,0,430.52,126.43Z"></path><path class="cls-5" d="M458,143.44l4.59-6.64a13.87,13.87,0,0,0,9.93,4.09c2.77,0,4.3-1.17,4.3-2.92,0-1.54-1.82-2.34-6.42-3.87-5.91-2-11-4.75-11-11.69,0-6.42,5.55-10.59,12.92-10.59a20,20,0,0,1,13,4.46l-4.67,7.08a12.61,12.61,0,0,0-8.53-3.8c-1.46,0-3.36.74-3.36,2.63,0,1.46,1.75,2.49,5.25,3.8,7.74,2.85,12.26,4.53,12.26,11.61,0,6.28-4.45,11.1-13.79,11.1A21.5,21.5,0,0,1,458,143.44Z"></path><path class="cls-5" d="M491.21,95.2l9.48-.9v33h.15l12.69-15h11.24l-12.48,14.31,12.77,21.4H514.34l-8.83-15-4.82,5.26v9.72h-9.48Z"></path></svg> 